<?xml version="1.0" encoding="iso-8859-1"?>
<!-- Generator: Adobe Illustrator 19.2.0, SVG Export Plug-In . SVG Version: 6.00 Build 0)  -->
<svg version="1.1" id="Layer_1" xmlns="http://www.w3.org/2000/svg" xmlns:xlink="http://www.w3.org/1999/xlink" x="0px" y="0px"
	 viewBox="0 0 297.172 477.857" style="enable-background:new 0 0 297.172 477.857;" xml:space="preserve">
<g>
	<path style="fill:#1C1D1F;" d="M128.209,7.191c-17.174,11.065-34.175,22.399-51.863,34.057c0-57.546,0-114.402,0-171.163
		c-2.172-0.814-3.152,0.648-4.306,1.348c-34.693,21.047-69.33,42.186-104.082,63.135c-3.248,1.958-4.508,3.933-4.507,7.798
		c0.01,40.83-0.204,81.661-0.355,122.492C128.204,473.56,128.209,475.217,128.209,477.857z"/>
	<path style="fill:#888888;" d="M128.541,115.77c54.466,22.166,108.713,44.242,163.728,66.632
		c-54.744,33.383-108.977,66.455-163.728,99.842C128.541,226.519,128.541,171.402,128.541,115.77z"/>
</g>
</svg>
